  0
SECTION
  2
HEADER
  9
$ACADVER
  1
AC1009
  9
$DWGCODEPAGE
  3
ansi_936
  9
$INSBASE
 10
0.0
 20
0.0
 30
0.0
  9
$EXTMIN
 10
-16.41836739577241
 20
-15.6220360453049
 30
0.0
  9
$EXTMAX
 10
347.4291185942595
 20
138.1514014546928
 30
0.0
  9
$LIMMIN
 10
0.0
 20
0.0
  9
$LIMMAX
 10
12.0
 20
9.0
  9
$ORTHOMODE
 70
     0
  9
$REGENMODE
 70
     1
  9
$FILLMODE
 70
     1
  9
$QTEXTMODE
 70
     0
  9
$MIRRTEXT
 70
     1
  9
$DRAGMODE
 70
     2
  9
$LTSCALE
 40
1.0
  9
$OSMODE
 70
    37
  9
$ATTMODE
 70
     1
  9
$TEXTSIZE
 40
0.2
  9
$TRACEWID
 40
0.05
  9
$TEXTSTYLE
  7
STANDARD
  9
$CLAYER
  8
0
  9
$CELTYPE
  6
BYBLOCK
  9
$CECOLOR
 62
   256
  9
$DIMSCALE
 40
1.0
  9
$DIMASZ
 40
0.18
  9
$DIMEXO
 40
0.0625
  9
$DIMDLI
 40
0.38
  9
$DIMRND
 40
0.0
  9
$DIMDLE
 40
0.36
  9
$DIMEXE
 40
0.18
  9
$DIMTP
 40
0.0
  9
$DIMTM
 40
0.0
  9
$DIMTXT
 40
0.18
  9
$DIMCEN
 40
0.09
  9
$DIMTSZ
 40
0.0
  9
$DIMTOL
 70
     0
  9
$DIMLIM
 70
     0
  9
$DIMTIH
 70
     1
  9
$DIMTOH
 70
     1
  9
$DIMSE1
 70
     0
  9
$DIMSE2
 70
     0
  9
$DIMTAD
 70
     0
  9
$DIMZIN
 70
     0
  9
$DIMBLK
  1

  9
$DIMASO
 70
     1
  9
$DIMSHO
 70
     1
  9
$DIMPOST
  1

  9
$DIMAPOST
  1

  9
$DIMALT
 70
     0
  9
$DIMALTD
 70
     2
  9
$DIMALTF
 40
25.4
  9
$DIMLFAC
 40
1.0
  9
$DIMTOFL
 70
     0
  9
$DIMTVP
 40
0.0
  9
$DIMTIX
 70
     0
  9
$DIMSOXD
 70
     0
  9
$DIMSAH
 70
     0
  9
$DIMBLK1
  1

  9
$DIMBLK2
  1

  9
$DIMSTYLE
  2
STANDARD
  9
$DIMCLRD
 70
     0
  9
$DIMCLRE
 70
     0
  9
$DIMCLRT
 70
     0
  9
$DIMTFAC
 40
1.0
  9
$DIMGAP
 40
0.09
  9
$LUNITS
 70
     2
  9
$LUPREC
 70
     4
  9
$SKETCHINC
 40
0.1
  9
$FILLETRAD
 40
0.5
  9
$AUNITS
 70
     0
  9
$AUPREC
 70
     0
  9
$MENU
  1
.
  9
$ELEVATION
 40
0.0
  9
$PELEVATION
 40
0.0
  9
$THICKNESS
 40
0.0
  9
$LIMCHECK
 70
     0
  9
$CHAMFERA
 40
0.0
  9
$CHAMFERB
 40
0.0
  9
$SKPOLY
 70
     0
  9
$TDCREATE
 40
2459328.677962859
  9
$TDUPDATE
 40
2459328.677964224
  9
$TDINDWG
 40
0.0000000116
  9
$TDUSRTIMER
 40
0.0000000116
  9
$USRTIMER
 70
     1
  9
$ANGBASE
 50
0.0
  9
$ANGDIR
 70
     0
  9
$PDMODE
 70
     0
  9
$PDSIZE
 40
-5.0
  9
$PLINEWID
 40
0.0
  9
$COORDS
 70
     1
  9
$SPLFRAME
 70
     0
  9
$SPLINETYPE
 70
     6
  9
$SPLINESEGS
 70
     8
  9
$ATTDIA
 70
     0
  9
$ATTREQ
 70
     1
  9
$HANDLING
 70
     1
  9
$HANDSEED
  5
2E6
  9
$SURFTAB1
 70
     6
  9
$SURFTAB2
 70
     6
  9
$SURFTYPE
 70
     6
  9
$SURFU
 70
     6
  9
$SURFV
 70
     6
  9
$UCSNAME
  2

  9
$UCSORG
 10
0.0
 20
0.0
 30
0.0
  9
$UCSXDIR
 10
1.0
 20
0.0
 30
0.0
  9
$UCSYDIR
 10
0.0
 20
1.0
 30
0.0
  9
$PUCSNAME
  2

  9
$PUCSORG
 10
0.0
 20
0.0
 30
0.0
  9
$PUCSXDIR
 10
1.0
 20
0.0
 30
0.0
  9
$PUCSYDIR
 10
0.0
 20
1.0
 30
0.0
  9
$USERI1
 70
     0
  9
$USERI2
 70
     0
  9
$USERI3
 70
     0
  9
$USERI4
 70
     0
  9
$USERI5
 70
     0
  9
$USERR1
 40
0.0
  9
$USERR2
 40
0.0
  9
$USERR3
 40
0.0
  9
$USERR4
 40
0.0
  9
$USERR5
 40
0.0
  9
$WORLDVIEW
 70
     1
  9
$SHADEDGE
 70
     3
  9
$SHADEDIF
 70
    70
  9
$TILEMODE
 70
     1
  9
$MAXACTVP
 70
    64
  9
$PLIMCHECK
 70
     0
  9
$PEXTMIN
 10
1.000000000000000E+20
 20
1.000000000000000E+20
 30
1.000000000000000E+20
  9
$PEXTMAX
 10
-1.000000000000000E+20
 20
-1.000000000000000E+20
 30
-1.000000000000000E+20
  9
$PLIMMIN
 10
0.0
 20
0.0
  9
$PLIMMAX
 10
12.0
 20
9.0
  9
$UNITMODE
 70
     0
  9
$VISRETAIN
 70
     1
  9
$PLINEGEN
 70
     0
  9
$PSLTSCALE
 70
     1
  0
ENDSEC
  0
SECTION
  2
TABLES
  0
TABLE
  2
VPORT
 70
     1
  0
VPORT
  2
*ACTIVE
 70
     0
 10
0.0
 20
0.0
 11
1.0
 21
1.0
 12
165.5053755992436
 22
61.26468270469395
 13
0.0
 23
0.0
 14
0.5
 24
0.5
 15
0.5
 25
0.5
 16
0.0
 26
0.0
 36
1.0
 17
0.0
 27
0.0
 37
0.0
 40
153.7734374999977
 41
2.36612702366127
 42
50.0
 43
0.0
 44
0.0
 50
0.0
 51
0.0
 71
     0
 72
   100
 73
     1
 74
     3
 75
     0
 76
     0
 77
     0
 78
     0
  0
ENDTAB
  0
TABLE
  2
LTYPE
 70
     4
  0
LTYPE
  2
CONTINUOUS
 70
     0
  3
Solid line
 72
    65
 73
     0
 40
0.0
  0
LTYPE
  2
虚线
 70
     0
  3
虚线: __ __ __ __ __ __ __ __ __ __ __ __ __
 72
    65
 73
     2
 40
2.0
 49
1.0
 49
-1.0
  0
LTYPE
  2
点画线
 70
     0
  3
点画线: ____ . ____ . ____ . ____ . ____ . ____
 72
    65
 73
     4
 40
18.0
 49
12.0
 49
-2.0
 49
2.0
 49
-2.0
  0
LTYPE
  2
双点画线
 70
     0
  3
双点画线: ____ . . ____ . . ____ . . ____ . . ____ 
 72
    65
 73
     6
 40
22.0
 49
12.0
 49
-2.0
 49
2.0
 49
-2.0
 49
2.0
 49
-2.0
  0
ENDTAB
  0
TABLE
  2
LAYER
 70
     8
  0
LAYER
  2
0
 70
     0
 62
     7
  6
CONTINUOUS
  0
LAYER
  2
中心线层
 70
     0
 62
     1
  6
点画线
  0
LAYER
  2
虚线层
 70
     0
 62
     6
  6
虚线
  0
LAYER
  2
细实线层
 70
     0
 62
     7
  6
CONTINUOUS
  0
LAYER
  2
粗实线层
 70
     0
 62
     7
  6
CONTINUOUS
  0
LAYER
  2
尺寸线层
 70
     0
 62
     3
  6
CONTINUOUS
  0
LAYER
  2
剖面线层
 70
     0
 62
     4
  6
CONTINUOUS
  0
LAYER
  2
隐藏层
 70
     0
 62
    -7
  6
CONTINUOUS
  0
ENDTAB
  0
TABLE
  2
STYLE
 70
     2
  0
STYLE
  2
STANDARD
 70
     0
 40
0.0
 41
1.0
 50
0.0
 71
     0
 42
3.5
  3
txt
  4

  0
STYLE
  2
标准
 70
     0
 40
0.0
 41
0.667
 50
0.0
 71
     0
 42
0.2
  3

  4

  0
ENDTAB
  0
TABLE
  2
VIEW
 70
     0
  0
ENDTAB
  0
TABLE
  2
UCS
 70
     0
  0
ENDTAB
  0
TABLE
  2
APPID
 70
   115
  0
APPID
  2
ACAD
 70
     0
  0
APPID
  2
CAXA_DRAFT_PAPERORDER
 70
     0
  0
APPID
  2
CAXA_DRAFT_ROUGH
 70
     0
  0
APPID
  2
CAXA_DRAFT_ROUGH_STD
 70
     0
  0
APPID
  2
CAXA_DRAFT_FORMATED_TXT
 70
     0
  0
APPID
  2
CAXA_DRAFT_DATUM
 70
     0
  0
APPID
  2
CAXA_DRAFT_WELD
 70
     0
  0
APPID
  2
CAXA_DRAFT_GEOTOL
 70
     0
  0
APPID
  2
CAXA_DRAFT_CUTS
 70
     0
  0
APPID
  2
CAXA_DRAFT_DIMHALF
 70
     0
  0
APPID
  2
CAXA_DRAFT_DIMRAY
 70
     0
  0
APPID
  2
CAXA_DRAFT_DIMARCLEN
 70
     0
  0
APPID
  2
CAXA_DRAFT_DIMTAPER
 70
     0
  0
APPID
  2
CAXA_DRAFT_DIMPITCH
 70
     0
  0
APPID
  2
CAXA_DRAFT_DIMCOORD
 70
     0
  0
APPID
  2
CAXA_DRAFT_DIMORIALIGN
 70
     0
  0
APPID
  2
CAXA_DRAFT_DIMHOLEPOS
 70
     0
  0
APPID
  2
CAXA_DRAFT_DIMCRDLEADER
 70
     0
  0
APPID
  2
CAXA_DRAFT_DIMCHAMFER
 70
     0
  0
APPID
  2
CAXA_DRAFT_DIMCENTERHOLE
 70
     0
  0
APPID
  2
CAXA_DRAFT_DIMLEADER
 70
     0
  0
APPID
  2
CAXA_DRAFT_DIMCRDLIST
 70
     0
  0
APPID
  2
CAXA_DRAFT_PAPERSCALE
 70
     0
  0
APPID
  2
CAXA_DRAFT_FILEVERSION
 70
     0
  0
APPID
  2
CAXA_DRAFT_PRODUCTVERSION
 70
     0
  0
APPID
  2
CAXA_DRAFT_DATATABLE
 70
     0
  0
APPID
  2
CAXA_DRAFT_PAPERINFO
 70
     0
  0
APPID
  2
CAXA_DRAFT_PAPERFRAME
 70
     0
  0
APPID
  2
CAXA_DRAFT_PAPERTITLE
 70
     0
  0
APPID
  2
CAXA_DRAFT_PAPERPAREATABLE
 70
     0
  0
APPID
  2
CAXA_DRAFT_PARTNO
 70
     0
  0
APPID
  2
CAXA_DRAFT_BOMTABLE
 70
     0
  0
APPID
  2
CAXA_DRAFT_BLKREF_EXTATT
 70
     0
  0
APPID
  2
CAXA_DRAFT_DBVIEWDATA
 70
     0
  0
APPID
  2
CAXA_DRAFT_DIMSYMTOL
 70
     0
  0
APPID
  2
CAXA_DRAFT_DIMASSEMTOL
 70
     0
  0
APPID
  2
CAXA_DRAFT_DIMANGLETOL
 70
     0
  0
APPID
  2
CAXA_DRAFT_DRAFTDATA
 70
     0
  0
APPID
  2
CAXA_DRAFT_DIMORIGIN
 70
     0
  0
APPID
  2
CAXA_DRAFT_ENLARGE_EDGE
 70
     0
  0
APPID
  2
CAXA_DRAFT_DIMSTY_T_VPOS
 70
     0
  0
APPID
  2
CAXA_DRAFT_DIMSTY_AT_VPOS
 70
     0
  0
APPID
  2
CAXA_DRAFT_BLKHIDE
 70
     0
  0
APPID
  2
CAXA_DRAFT_DIMARROWREVERSE
 70
     0
  0
APPID
  2
CAXA_DRAFT_TXTSTYLE
 70
     0
  0
APPID
  2
CAXA_DRAFT_ATTRIBUTE_2PT
 70
     0
  0
APPID
  2
CAXA_DRAFT_ATTDEF_2PT
 70
     0
  0
APPID
  2
CAXA_DRAFT_DIMBIGARC
 70
     0
  0
APPID
  2
CAXA_DRAFT_ISNEB09R3
 70
     0
  0
APPID
  2
CAXA_DRAFT_WIPEOUT_B_HIDE
 70
     0
  0
APPID
  2
CAXA_DRAFT_BLKREF_SYMBOL
 70
     0
  0
APPID
  2
CAXA_DRAFT_ENL_COMMENTS
 70
     0
  0
APPID
  2
CAXA_DRAFT_ENL_TSCALE
 70
     0
  0
APPID
  2
CAXA_DRAFT_TXTSCALE
 70
     0
  0
APPID
  2
CAXA_DRAFT_KEEPLTSEG_ZOOM
 70
     0
  0
APPID
  2
CAXA_DRAFT_SPECLIB
 70
     0
  0
APPID
  2
CAXA_DRAFT_DATUM_2011R2
 70
     0
  0
APPID
  2
CAXA_DRAFT_ROUGH_2011R2
 70
     0
  0
APPID
  2
CAXA_DRAFT_GEOTOL_2011R2
 70
     0
  0
APPID
  2
CAXA_DRAFT_DMOVMAP_2011R3
 70
     0
  0
APPID
  2
CAXA_DRAFT_DDTSTY_2011R3
 70
     0
  0
APPID
  2
CAXA_DRAFT_SDTSTY_2011R3
 70
     0
  0
APPID
  2
CDRAFT_TXTROT_2011R3
 70
     0
  0
APPID
  2
CDRAFT_TOLOUT_2011R3
 70
     0
  0
APPID
  2
CAXA_DRAFT_DIMARCLENSTYLE
 70
     0
  0
APPID
  2
CAXA_DRAFT_DMOVMAP_2013
 70
     0
  0
APPID
  2
CAXA_DRAFT_DS_DLLNTYPE
 70
     0
  0
APPID
  2
CAXA_DRAFT_DS_LBLLNTYPE
 70
     0
  0
APPID
  2
CAXA_DRAFT_DS_RBLLNTYPE
 70
     0
  0
APPID
  2
CAXA_DRAFT_DS_ISFILLDFM
 70
     0
  0
APPID
  2
CAXA_DRAFT_DS_DISPZTOOL
 70
     0
  0
APPID
  2
CAXA_DRAFT_DS_SYMCOLOR
 70
     0
  0
APPID
  2
CAXA_DRAFT_HATCH_SCALE_ANG
 70
     0
  0
APPID
  2
CAXA_DRAFT_GEOTOL_ISFROMDW
 70
     0
  0
APPID
  2
CXDRAGDIADIMLNSTYLE
 70
     0
  0
APPID
  2
CXDRAGRADDIMLNSTYLE
 70
     0
  0
APPID
  2
CX_DBANNOTATE_SIMDIMORITXT
 70
     0
  0
APPID
  2
CX_DBANNOTATE_TXTLOCPARA
 70
     0
  0
APPID
  2
CX_DBANNOTATE_DRAGTXTLOC
 70
     0
  0
APPID
  2
USERSETTXTLOC
 70
     0
  0
APPID
  2
USERSETTXTLOCTYPE
 70
     0
  0
APPID
  2
USERSETTXTLOCPT
 70
     0
  0
APPID
  2
CAXA_DRAFT_IMAGE_BINARY
 70
     0
  0
APPID
  2
DIMTXTFRMSTYLE_2015R1
 70
     0
  0
APPID
  2
CAXA_DRAFT_GEOTOL_ISSHX
 70
     0
  0
APPID
  2
CAXA_SUPGRAPHICDIM
 70
     0
  0
APPID
  2
CAXA_GRAPHICARCLEN_HASLN
 70
     0
  0
APPID
  2
CAXA_GRAPHICDIM_OUT
 70
     0
  0
APPID
  2
CAXA_DATUM_LEADLNBKMODE
 70
     0
  0
APPID
  2
CX_DBDIM_CRDDIMLINEANDARRO
 70
     0
  0
APPID
  2
CX_DBDIM_TAPERANGLESTD
 70
     0
  0
APPID
  2
CX_DBATTRIBDEF_OPTIONALVAL
 70
     0
  0
APPID
  2
CAXA_DRAFT_LEADER_MLEADERL
 70
     0
  0
APPID
  2
CAXA_DRAFT_WELD_MLEADERLIN
 70
     0
  0
APPID
  2
CAXA_DRAFT_GEOTOL_MLEADERL
 70
     0
  0
APPID
  2
CAXA_DRAFT_ROUGH_MLEADERLI
 70
     0
  0
APPID
  2
CAXA_DRAFT_DATUM_MLEADERLI
 70
     0
  0
APPID
  2
CAXA_DRAFT_ROUGH_STDSPTDAT
 70
     0
  0
APPID
  2
CAXA_DRAFT_CUTS_LABLEDATA
 70
     0
  0
APPID
  2
CAXA_DRAFT_LEADER_DISPREFL
 70
     0
  0
APPID
  2
CAXA_DRAFT_TAPER_TEXTTYPE
 70
     0
  0
APPID
  2
CAXA_DRAFT_TAPER_RATEFORMA
 70
     0
  0
APPID
  2
CAXA_DRAFT_TAPER_RATESEPAR
 70
     0
  0
APPID
  2
CX_DIMSTYLE_TXTFRAME
 70
     0
  0
APPID
  2
CX_DBDIM_TXTFRAME
 70
     0
  0
APPID
  2
CAXA_DRAFT_TABLEENT
 70
     0
  0
APPID
  2
CDRAFT_DIM_STD_REV_NAME
 70
     0
  0
APPID
  2
CAXA_DRAFT_BOM_STDSPTDATA
 70
     0
  0
APPID
  2
CAXA_DRAFT_PARTNO_STDSPTDA
 70
     0
  0
APPID
  2
CAXA_DRAFT_DATUM_LOCPTEDIT
 70
     0
  0
APPID
  2
CAXA_DRAFT_INFO_WMFLAG
 70
     0
  0
APPID
  2
CX_DBDIM_CRDDIMTYPEANDDATA
 70
     0
  0
APPID
  2
CX_DBDIM_DIMORIGINBITEXT
 70
     0
  0
APPID
  2
CX_DBDIM_DIMCRDLEADERPTS
 70
     0
  0
APPID
  2
ACAECLAYERSTANDARD
 70
     0
  0
ENDTAB
  0
TABLE
  2
DIMSTYLE
 70
     5
  0
DIMSTYLE
  2
STANDARD
 70
     0
  3

  4

  5

  6

  7

 40
1.0
 41
0.18
 42
0.0625
 43
0.38
 44
0.18
 45
0.0
 46
0.36
 47
0.0
 48
0.0
140
0.18
141
0.09
142
0.0
143
25.4
144
1.0
145
0.0
146
1.0
147
0.09
 71
     0
 72
     0
 73
     1
 74
     1
 75
     0
 76
     0
 77
     0
 78
     0
170
     0
171
     2
172
     0
173
     0
174
     0
175
     0
176
     0
177
     0
178
     0
  0
DIMSTYLE
  2
标准
 70
     0
  3

  4

  5
CAXARROW
  6

  7

 40
1.0
 41
4.0
 42
0.0
 43
10.0
 44
2.0
 45
0.0
 46
6.0
 47
0.0
 48
0.0
140
3.5
141
0.0
142
0.0
143
1.0
144
1.0
145
0.0
146
0.7071067811865475
147
0.625
 71
     0
 72
     0
 73
     0
 74
     0
 75
     0
 76
     0
 77
     1
 78
     8
170
     0
171
     2
172
     1
173
     0
174
     0
175
     0
176
     0
177
     0
178
     0
  0
DIMSTYLE
  2
GB_尺寸
 70
     0
  3

  4

  5
CAXARROW
  6

  7

 40
1.0
 41
4.0
 42
0.0
 43
10.0
 44
2.0
 45
0.0
 46
6.0
 47
0.0
 48
0.0
140
3.5
141
0.0
142
0.0
143
1.0
144
1.0
145
0.0
146
0.7071067811865475
147
0.625
 71
     0
 72
     0
 73
     0
 74
     0
 75
     0
 76
     0
 77
     1
 78
     8
170
     0
171
     2
172
     1
173
     0
174
     0
175
     0
176
     0
177
     0
178
     0
  0
DIMSTYLE
  2
GB_引出说明_1984_
 70
     0
  3

  4

  5
CAXARROW
  6

  7

 40
1.0
 41
4.0
 42
0.0
 43
10.0
 44
2.0
 45
0.0
 46
6.0
 47
0.0
 48
0.0
140
3.5
141
0.0
142
0.0
143
1.0
144
1.0
145
0.0
146
0.7071067811865475
147
0.625
 71
     0
 72
     0
 73
     0
 74
     0
 75
     0
 76
     0
 77
     1
 78
     8
170
     0
171
     2
172
     1
173
     0
174
     0
175
     0
176
     0
177
     0
178
     0
  0
DIMSTYLE
  2
GB_锥度_2003_
 70
     0
  3

  4

  5
CAXARROW
  6

  7

 40
1.0
 41
4.0
 42
0.0
 43
10.0
 44
2.0
 45
0.0
 46
6.0
 47
0.0
 48
0.0
140
3.5
141
0.0
142
0.0
143
1.0
144
1.0
145
0.0
146
0.7071067811865475
147
0.625
 71
     0
 72
     0
 73
     0
 74
     0
 75
     0
 76
     0
 77
     1
 78
     8
170
     0
171
     2
172
     1
173
     0
174
     0
175
     0
176
     0
177
     0
178
     0
  0
ENDTAB
  0
ENDSEC
  0
SECTION
  2
BLOCKS
  0
BLOCK
  8
0
  2
$MODEL_SPACE
 70
     0
 10
0.0
 20
0.0
 30
0.0
  3
$MODEL_SPACE
  1

  0
ENDBLK
  5
21
  8
0
  0
BLOCK
 67
     1
  8
0
  2
$PAPER_SPACE
 70
     0
 10
0.0
 20
0.0
 30
0.0
  3
$PAPER_SPACE
  1

  0
ENDBLK
  5
1D
 67
     1
  8
0
  0
BLOCK
  8
0
  2
_CAXARROW
 70
     0
 10
0.0
 20
0.0
 30
0.0
  3
_CAXARROW
  1

  0
INSERT
  5
EF
  8
0
 62
     0
  2
*U2
 10
0.0
 20
0.0
 30
0.0
1001
ACAD
1002
{
1000
R14_HATCH_DATA
1000
EF
1011
1.0
1021
0.0
1031
0.0
1021
0.0
1031
0.0
1011
0.0
1021
1.0
1031
0.0
1021
1.0
1031
0.0
1011
0.0
1021
0.0
1031
1.0
1021
0.0
1031
1.0
1040
0.0
1010
0.0
1020
0.0
1030
1.0
1000
SOLID
1070
     1
1070
     1
1071
        1
1071
        0
1071
        3
1070
     1
1040
0.0
1040
0.0
1040
-1.0
1040
0.125
1070
     1
1040
-1.0
1040
0.125
1040
-1.0
1040
-0.125
1070
     1
1040
-1.0
1040
-0.125
1040
0.0
1040
0.0
1071
        0
1070
     0
1070
     1
1071
        1
1040
0.0
1040
0.0
1040
0.0
1002
}
  0
ENDBLK
  5
F1
  8
0
  0
BLOCK
  8
0
  2
*U2
 70
     1
 10
0.0
 20
0.0
 30
0.0
  3
*U2
  1

  0
SOLID
  5
2E3
  8
0
  6
CONTINUOUS
 62
     0
 10
-1.0
 20
-0.125
 30
0.0
 11
-1.0
 21
0.125
 31
0.0
 12
0.0
 22
0.0
 32
0.0
 13
0.0
 23
0.0
 33
0.0
  0
ENDBLK
  5
2E5
  8
0
  0
ENDSEC
  0
SECTION
  2
ENTITIES
  0
LINE
  5
124
  8
0
 62
     0
 10
281.969
 20
40.9924
 30
0.0
 11
281.196
 21
40.87
 31
0.0
  0
LINE
  5
125
  8
0
 62
     0
 10
281.196
 20
40.87
 30
0.0
 11
280.5
 21
40.5158
 31
0.0
  0
LINE
  5
126
  8
0
 62
     0
 10
280.5
 20
40.5158
 30
0.0
 11
279.947
 21
39.963
 31
0.0
  0
LINE
  5
127
  8
0
 62
     0
 10
279.947
 20
39.963
 30
0.0
 11
279.592
 21
39.2659
 31
0.0
  0
LINE
  5
128
  8
0
 62
     0
 10
279.592
 20
39.2659
 30
0.0
 11
279.469
 21
38.4941
 31
0.0
  0
LINE
  5
129
  8
0
 62
     0
 10
279.469
 20
38.4941
 30
0.0
 11
279.592
 21
37.7197
 31
0.0
  0
LINE
  5
12A
  8
0
 62
     0
 10
279.592
 20
37.7197
 30
0.0
 11
279.947
 21
37.0237
 31
0.0
  0
LINE
  5
12B
  8
0
 62
     0
 10
279.947
 20
37.0237
 30
0.0
 11
280.5
 21
36.4698
 31
0.0
  0
LINE
  5
12C
  8
0
 62
     0
 10
280.5
 20
36.4698
 30
0.0
 11
281.196
 21
36.1142
 31
0.0
  0
LINE
  5
12D
  8
0
 62
     0
 10
281.196
 20
36.1142
 30
0.0
 11
281.969
 21
35.9929
 31
0.0
  0
LINE
  5
12E
  8
0
 62
     0
 10
281.969
 20
35.9929
 30
0.0
 11
285.13
 21
35.9929
 31
0.0
  0
LINE
  5
12F
  8
0
 62
     0
 10
3.59392
 20
35.9929
 30
0.0
 11
4.367
 21
36.1142
 31
0.0
  0
LINE
  5
130
  8
0
 62
     0
 10
4.367
 20
36.1142
 30
0.0
 11
5.06293
 21
36.4698
 31
0.0
  0
LINE
  5
131
  8
0
 62
     0
 10
5.06293
 20
36.4698
 30
0.0
 11
5.61689
 21
37.0237
 31
0.0
  0
LINE
  5
132
  8
0
 62
     0
 10
5.61689
 20
37.0237
 30
0.0
 11
5.97105
 21
37.7197
 31
0.0
  0
LINE
  5
133
  8
0
 62
     0
 10
5.97105
 20
37.7197
 30
0.0
 11
6.09505
 21
38.4926
 31
0.0
  0
LINE
  5
134
  8
0
 62
     0
 10
6.09505
 20
38.4926
 30
0.0
 11
5.97105
 21
39.2659
 31
0.0
  0
LINE
  5
135
  8
0
 62
     0
 10
5.97105
 20
39.2659
 30
0.0
 11
5.61689
 21
39.963
 31
0.0
  0
LINE
  5
136
  8
0
 62
     0
 10
5.61689
 20
39.963
 30
0.0
 11
5.06293
 21
40.5158
 31
0.0
  0
LINE
  5
137
  8
0
 62
     0
 10
5.06293
 20
40.5158
 30
0.0
 11
4.367
 21
40.87
 31
0.0
  0
LINE
  5
138
  8
0
 62
     0
 10
4.367
 20
40.87
 30
0.0
 11
3.5953
 21
40.9924
 31
0.0
  0
LINE
  5
139
  8
0
 62
     0
 10
3.5953
 20
40.9924
 30
0.0
 11
0.4308845999999997
 21
40.9924
 31
0.0
  0
LINE
  5
13A
  8
0
 62
     0
 10
123.876
 20
16.593
 30
0.0
 11
123.876
 21
11.8938
 31
0.0
  0
LINE
  5
13B
  8
0
 62
     0
 10
123.876
 20
11.8938
 30
0.0
 11
84.2504
 21
11.8938
 31
0.0
  0
LINE
  5
13C
  8
0
 62
     0
 10
84.2504
 20
11.8938
 30
0.0
 11
84.2504
 21
15.124
 31
0.0
  0
LINE
  5
13D
  8
0
 62
     0
 10
84.2504
 20
15.124
 30
0.0
 11
77.501
 21
15.124
 31
0.0
  0
LINE
  5
13E
  8
0
 62
     0
 10
77.501
 20
15.124
 30
0.0
 11
77.501
 21
11.8938
 31
0.0
  0
LINE
  5
13F
  8
0
 62
     0
 10
77.501
 20
11.8938
 30
0.0
 11
76.6755
 21
11.8938
 31
0.0
  0
LINE
  5
140
  8
0
 62
     0
 10
76.6755
 20
11.8938
 30
0.0
 11
76.6755
 21
9.09366
 31
0.0
  0
LINE
  5
141
  8
0
 62
     0
 10
76.6755
 20
9.09366
 30
0.0
 11
77.501
 21
9.09366
 31
0.0
  0
LINE
  5
142
  8
0
 62
     0
 10
77.501
 20
9.09366
 30
0.0
 11
77.501
 21
2.8236
 31
0.0
  0
LINE
  5
143
  8
0
 62
     0
 10
77.501
 20
2.8236
 30
0.0
 11
79.2261
 21
2.8236
 31
0.0
  0
LINE
  5
144
  8
0
 62
     0
 10
79.2261
 20
2.8236
 30
0.0
 11
79.2261
 21
1.62333
 31
0.0
  0
LINE
  5
145
  8
0
 62
     0
 10
79.2261
 20
1.62333
 30
0.0
 11
82.5253
 21
1.62333
 31
0.0
  0
LINE
  5
146
  8
0
 62
     0
 10
82.5253
 20
1.62333
 30
0.0
 11
82.5253
 21
2.8236
 31
0.0
  0
LINE
  5
147
  8
0
 62
     0
 10
82.5253
 20
2.8236
 30
0.0
 11
84.2504
 21
2.8236
 31
0.0
  0
LINE
  5
148
  8
0
 62
     0
 10
84.2504
 20
2.8236
 30
0.0
 11
84.2504
 21
7.29396
 31
0.0
  0
LINE
  5
149
  8
0
 62
     0
 10
84.2504
 20
7.29396
 30
0.0
 11
123.876
 21
7.29396
 31
0.0
  0
LINE
  5
14A
  8
0
 62
     0
 10
123.876
 20
7.29396
 30
0.0
 11
123.876
 21
2.59347
 31
0.0
  0
LINE
  5
14B
  8
0
 62
     0
 10
123.876
 20
2.59347
 30
0.0
 11
137.875
 21
2.59347
 31
0.0
  0
LINE
  5
14C
  8
0
 62
     0
 10
137.875
 20
2.59347
 30
0.0
 11
137.875
 21
7.29396
 31
0.0
  0
LINE
  5
14D
  8
0
 62
     0
 10
137.875
 20
7.29396
 30
0.0
 11
177.501
 21
7.29396
 31
0.0
  0
LINE
  5
14E
  8
0
 62
     0
 10
177.501
 20
7.29396
 30
0.0
 11
177.501
 21
2.8236
 31
0.0
  0
LINE
  5
14F
  8
0
 62
     0
 10
177.501
 20
2.8236
 30
0.0
 11
179.225
 21
2.8236
 31
0.0
  0
LINE
  5
150
  8
0
 62
     0
 10
179.225
 20
2.8236
 30
0.0
 11
179.225
 21
1.62333
 31
0.0
  0
LINE
  5
151
  8
0
 62
     0
 10
179.225
 20
1.62333
 30
0.0
 11
182.525
 21
1.62333
 31
0.0
  0
LINE
  5
152
  8
0
 62
     0
 10
182.525
 20
1.62333
 30
0.0
 11
182.525
 21
2.8236
 31
0.0
  0
LINE
  5
153
  8
0
 62
     0
 10
182.525
 20
2.8236
 30
0.0
 11
184.251
 21
2.8236
 31
0.0
  0
LINE
  5
154
  8
0
 62
     0
 10
184.251
 20
2.8236
 30
0.0
 11
184.251
 21
9.09366
 31
0.0
  0
LINE
  5
155
  8
0
 62
     0
 10
184.251
 20
9.09366
 30
0.0
 11
185.075
 21
9.09366
 31
0.0
  0
LINE
  5
156
  8
0
 62
     0
 10
185.075
 20
9.09366
 30
0.0
 11
185.075
 21
11.8938
 31
0.0
  0
LINE
  5
157
  8
0
 62
     0
 10
185.075
 20
11.8938
 30
0.0
 11
184.251
 21
11.8938
 31
0.0
  0
LINE
  5
158
  8
0
 62
     0
 10
184.251
 20
11.8938
 30
0.0
 11
184.251
 21
15.124
 31
0.0
  0
LINE
  5
159
  8
0
 62
     0
 10
184.251
 20
15.124
 30
0.0
 11
177.501
 21
15.124
 31
0.0
  0
LINE
  5
15A
  8
0
 62
     0
 10
177.501
 20
15.124
 30
0.0
 11
177.501
 21
11.8938
 31
0.0
  0
LINE
  5
15B
  8
0
 62
     0
 10
177.501
 20
11.8938
 30
0.0
 11
137.875
 21
11.8938
 31
0.0
  0
LINE
  5
15C
  8
0
 62
     0
 10
137.875
 20
11.8938
 30
0.0
 11
137.875
 21
16.593
 31
0.0
  0
LINE
  5
15D
  8
0
 62
     0
 10
137.875
 20
16.593
 30
0.0
 11
123.876
 21
16.593
 31
0.0
  0
LINE
  5
15E
  8
0
 62
     0
 10
269.131
 20
16.593
 30
0.0
 11
283.13
 21
16.593
 31
0.0
  0
LINE
  5
15F
  8
0
 62
     0
 10
283.13
 20
16.593
 30
0.0
 11
283.13
 21
2.59347
 31
0.0
  0
LINE
  5
160
  8
0
 62
     0
 10
283.13
 20
2.59347
 30
0.0
 11
269.131
 21
2.59347
 31
0.0
  0
LINE
  5
161
  8
0
 62
     0
 10
269.131
 20
2.59347
 30
0.0
 11
269.131
 21
16.593
 31
0.0
  0
LINE
  5
162
  8
0
 62
     0
 10
250.081
 20
16.593
 30
0.0
 11
264.08
 21
16.593
 31
0.0
  0
LINE
  5
163
  8
0
 62
     0
 10
264.08
 20
16.593
 30
0.0
 11
264.08
 21
2.59347
 31
0.0
  0
LINE
  5
164
  8
0
 62
     0
 10
264.08
 20
2.59347
 30
0.0
 11
250.081
 21
2.59347
 31
0.0
  0
LINE
  5
165
  8
0
 62
     0
 10
250.081
 20
2.59347
 30
0.0
 11
250.081
 21
16.593
 31
0.0
  0
LINE
  5
166
  8
0
 62
     0
 10
231.031
 20
16.593
 30
0.0
 11
245.032
 21
16.593
 31
0.0
  0
LINE
  5
167
  8
0
 62
     0
 10
245.032
 20
16.593
 30
0.0
 11
245.032
 21
2.59347
 31
0.0
  0
LINE
  5
168
  8
0
 62
     0
 10
245.032
 20
2.59347
 30
0.0
 11
231.031
 21
2.59347
 31
0.0
  0
LINE
  5
169
  8
0
 62
     0
 10
231.031
 20
2.59347
 30
0.0
 11
231.031
 21
16.593
 31
0.0
  0
LINE
  5
16A
  8
0
 62
     0
 10
211.981
 20
16.593
 30
0.0
 11
225.982
 21
16.593
 31
0.0
  0
LINE
  5
16B
  8
0
 62
     0
 10
225.982
 20
16.593
 30
0.0
 11
225.982
 21
2.59347
 31
0.0
  0
LINE
  5
16C
  8
0
 62
     0
 10
225.982
 20
2.59347
 30
0.0
 11
211.981
 21
2.59347
 31
0.0
  0
LINE
  5
16D
  8
0
 62
     0
 10
211.981
 20
2.59347
 30
0.0
 11
211.981
 21
16.593
 31
0.0
  0
LINE
  5
16E
  8
0
 62
     0
 10
192.931
 20
2.59347
 30
0.0
 11
206.93
 21
2.59347
 31
0.0
  0
LINE
  5
16F
  8
0
 62
     0
 10
206.93
 20
2.59347
 30
0.0
 11
206.93
 21
16.593
 31
0.0
  0
LINE
  5
170
  8
0
 62
     0
 10
206.93
 20
16.593
 30
0.0
 11
192.931
 21
16.593
 31
0.0
  0
LINE
  5
171
  8
0
 62
     0
 10
52.4372
 20
16.593
 30
0.0
 11
66.4379
 21
16.593
 31
0.0
  0
LINE
  5
172
  8
0
 62
     0
 10
66.4379
 20
16.593
 30
0.0
 11
66.4379
 21
2.59347
 31
0.0
  0
LINE
  5
173
  8
0
 62
     0
 10
66.4379
 20
2.59347
 30
0.0
 11
52.4372
 21
2.59347
 31
0.0
  0
LINE
  5
174
  8
0
 62
     0
 10
52.4372
 20
2.59347
 30
0.0
 11
52.4372
 21
16.593
 31
0.0
  0
LINE
  5
175
  8
0
 62
     0
 10
28.6246
 20
16.593
 30
0.0
 11
42.624
 21
16.593
 31
0.0
  0
LINE
  5
176
  8
0
 62
     0
 10
42.624
 20
16.593
 30
0.0
 11
42.624
 21
2.59347
 31
0.0
  0
LINE
  5
177
  8
0
 62
     0
 10
42.624
 20
2.59347
 30
0.0
 11
28.6246
 21
2.59347
 31
0.0
  0
LINE
  5
178
  8
0
 62
     0
 10
28.6246
 20
2.59347
 30
0.0
 11
28.6246
 21
16.593
 31
0.0
  0
LINE
  5
179
  8
0
 62
     0
 10
4.8121
 20
16.593
 30
0.0
 11
18.813
 21
16.593
 31
0.0
  0
LINE
  5
17A
  8
0
 62
     0
 10
18.813
 20
16.593
 30
0.0
 11
18.813
 21
2.59347
 31
0.0
  0
LINE
  5
17B
  8
0
 62
     0
 10
18.813
 20
2.59347
 30
0.0
 11
4.8121
 21
2.59347
 31
0.0
  0
LINE
  5
17C
  8
0
 62
     0
 10
4.8121
 20
2.59347
 30
0.0
 11
4.8121
 21
16.593
 31
0.0
  0
LINE
  5
17D
  8
0
 62
     0
 10
11.9558
 20
35.6429
 30
0.0
 11
11.9558
 21
30.9425
 31
0.0
  0
LINE
  5
17E
  8
0
 62
     0
 10
11.9558
 20
30.9425
 30
0.0
 11
10.4317
 21
30.9425
 31
0.0
  0
LINE
  5
17F
  8
0
 62
     0
 10
10.4317
 20
30.9425
 30
0.0
 11
10.4317
 21
34.174
 31
0.0
  0
LINE
  5
180
  8
0
 62
     0
 10
10.4317
 20
34.174
 30
0.0
 11
3.68212
 21
34.174
 31
0.0
  0
LINE
  5
181
  8
0
 62
     0
 10
3.68212
 20
34.174
 30
0.0
 11
3.68212
 21
30.9425
 31
0.0
  0
LINE
  5
182
  8
0
 62
     0
 10
3.68212
 20
30.9425
 30
0.0
 11
2.85667
 21
30.9425
 31
0.0
  0
LINE
  5
183
  8
0
 62
     0
 10
2.85667
 20
30.9425
 30
0.0
 11
2.85667
 21
28.1437
 31
0.0
  0
LINE
  5
184
  8
0
 62
     0
 10
2.85667
 20
28.1437
 30
0.0
 11
3.68212
 21
28.1437
 31
0.0
  0
LINE
  5
185
  8
0
 62
     0
 10
3.68212
 20
28.1437
 30
0.0
 11
3.68212
 21
21.8736
 31
0.0
  0
LINE
  5
186
  8
0
 62
     0
 10
3.68212
 20
21.8736
 30
0.0
 11
5.40604
 21
21.8736
 31
0.0
  0
LINE
  5
187
  8
0
 62
     0
 10
5.40604
 20
21.8736
 30
0.0
 11
5.40604
 21
20.6733
 31
0.0
  0
LINE
  5
188
  8
0
 62
     0
 10
5.40604
 20
20.6733
 30
0.0
 11
8.70645
 21
20.6733
 31
0.0
  0
LINE
  5
189
  8
0
 62
     0
 10
8.70645
 20
20.6733
 30
0.0
 11
8.70645
 21
21.8736
 31
0.0
  0
LINE
  5
18A
  8
0
 62
     0
 10
8.70645
 20
21.8736
 30
0.0
 11
10.4317
 21
21.8736
 31
0.0
  0
LINE
  5
18B
  8
0
 62
     0
 10
10.4317
 20
21.8736
 30
0.0
 11
10.4317
 21
26.344
 31
0.0
  0
LINE
  5
18C
  8
0
 62
     0
 10
10.4317
 20
26.344
 30
0.0
 11
11.9558
 21
26.344
 31
0.0
  0
LINE
  5
18D
  8
0
 62
     0
 10
11.9558
 20
26.344
 30
0.0
 11
11.9558
 21
21.6435
 31
0.0
  0
LINE
  5
18E
  8
0
 62
     0
 10
11.9558
 20
21.6435
 30
0.0
 11
25.9553
 21
21.6435
 31
0.0
  0
LINE
  5
18F
  8
0
 62
     0
 10
25.9553
 20
21.6435
 30
0.0
 11
25.9553
 21
26.344
 31
0.0
  0
LINE
  5
190
  8
0
 62
     0
 10
25.9553
 20
26.344
 30
0.0
 11
27.4808
 21
26.344
 31
0.0
  0
LINE
  5
191
  8
0
 62
     0
 10
27.4808
 20
26.344
 30
0.0
 11
27.4808
 21
21.8736
 31
0.0
  0
LINE
  5
192
  8
0
 62
     0
 10
27.4808
 20
21.8736
 30
0.0
 11
29.2062
 21
21.8736
 31
0.0
  0
LINE
  5
193
  8
0
 62
     0
 10
29.2062
 20
21.8736
 30
0.0
 11
29.2062
 21
20.6733
 31
0.0
  0
LINE
  5
194
  8
0
 62
     0
 10
29.2062
 20
20.6733
 30
0.0
 11
32.5052
 21
20.6733
 31
0.0
  0
LINE
  5
195
  8
0
 62
     0
 10
32.5052
 20
20.6733
 30
0.0
 11
32.5052
 21
21.8736
 31
0.0
  0
LINE
  5
196
  8
0
 62
     0
 10
32.5052
 20
21.8736
 30
0.0
 11
34.2319
 21
21.8736
 31
0.0
  0
LINE
  5
197
  8
0
 62
     0
 10
34.2319
 20
21.8736
 30
0.0
 11
34.2319
 21
28.1437
 31
0.0
  0
LINE
  5
198
  8
0
 62
     0
 10
34.2319
 20
28.1437
 30
0.0
 11
35.0559
 21
28.1437
 31
0.0
  0
LINE
  5
199
  8
0
 62
     0
 10
35.0559
 20
28.1437
 30
0.0
 11
35.0559
 21
30.9425
 31
0.0
  0
LINE
  5
19A
  8
0
 62
     0
 10
35.0559
 20
30.9425
 30
0.0
 11
34.2319
 21
30.9425
 31
0.0
  0
LINE
  5
19B
  8
0
 62
     0
 10
34.2319
 20
30.9425
 30
0.0
 11
34.2319
 21
34.174
 31
0.0
  0
LINE
  5
19C
  8
0
 62
     0
 10
34.2319
 20
34.174
 30
0.0
 11
27.4808
 21
34.174
 31
0.0
  0
LINE
  5
19D
  8
0
 62
     0
 10
27.4808
 20
34.174
 30
0.0
 11
27.4808
 21
30.9425
 31
0.0
  0
LINE
  5
19E
  8
0
 62
     0
 10
27.4808
 20
30.9425
 30
0.0
 11
25.9553
 21
30.9425
 31
0.0
  0
LINE
  5
19F
  8
0
 62
     0
 10
25.9553
 20
30.9425
 30
0.0
 11
25.9553
 21
35.6429
 31
0.0
  0
LINE
  5
1A0
  8
0
 62
     0
 10
25.9553
 20
35.6429
 30
0.0
 11
11.9558
 21
35.6429
 31
0.0
  0
LINE
  5
1A1
  8
0
 62
     0
 10
269.131
 20
35.6429
 30
0.0
 11
283.13
 21
35.6429
 31
0.0
  0
LINE
  5
1A2
  8
0
 62
     0
 10
283.13
 20
35.6429
 30
0.0
 11
283.13
 21
21.6435
 31
0.0
  0
LINE
  5
1A3
  8
0
 62
     0
 10
283.13
 20
21.6435
 30
0.0
 11
269.131
 21
21.6435
 31
0.0
  0
LINE
  5
1A4
  8
0
 62
     0
 10
269.131
 20
21.6435
 30
0.0
 11
269.131
 21
35.6429
 31
0.0
  0
LINE
  5
1A5
  8
0
 62
     0
 10
250.081
 20
35.6429
 30
0.0
 11
264.08
 21
35.6429
 31
0.0
  0
LINE
  5
1A6
  8
0
 62
     0
 10
264.08
 20
35.6429
 30
0.0
 11
264.08
 21
21.6435
 31
0.0
  0
LINE
  5
1A7
  8
0
 62
     0
 10
264.08
 20
21.6435
 30
0.0
 11
250.081
 21
21.6435
 31
0.0
  0
LINE
  5
1A8
  8
0
 62
     0
 10
250.081
 20
21.6435
 30
0.0
 11
250.081
 21
35.6429
 31
0.0
  0
LINE
  5
1A9
  8
0
 62
     0
 10
231.031
 20
35.6429
 30
0.0
 11
245.032
 21
35.6429
 31
0.0
  0
LINE
  5
1AA
  8
0
 62
     0
 10
245.032
 20
35.6429
 30
0.0
 11
245.032
 21
21.6435
 31
0.0
  0
LINE
  5
1AB
  8
0
 62
     0
 10
245.032
 20
21.6435
 30
0.0
 11
231.031
 21
21.6435
 31
0.0
  0
LINE
  5
1AC
  8
0
 62
     0
 10
231.031
 20
21.6435
 30
0.0
 11
231.031
 21
35.6429
 31
0.0
  0
LINE
  5
1AD
  8
0
 62
     0
 10
211.981
 20
35.6429
 30
0.0
 11
225.982
 21
35.6429
 31
0.0
  0
LINE
  5
1AE
  8
0
 62
     0
 10
225.982
 20
35.6429
 30
0.0
 11
225.982
 21
21.6435
 31
0.0
  0
LINE
  5
1AF
  8
0
 62
     0
 10
225.982
 20
21.6435
 30
0.0
 11
211.981
 21
21.6435
 31
0.0
  0
LINE
  5
1B0
  8
0
 62
     0
 10
211.981
 20
21.6435
 30
0.0
 11
211.981
 21
35.6429
 31
0.0
  0
LINE
  5
1B1
  8
0
 62
     0
 10
192.931
 20
35.6429
 30
0.0
 11
206.93
 21
35.6429
 31
0.0
  0
LINE
  5
1B2
  8
0
 62
     0
 10
206.93
 20
35.6429
 30
0.0
 11
206.93
 21
21.6435
 31
0.0
  0
LINE
  5
1B3
  8
0
 62
     0
 10
206.93
 20
21.6435
 30
0.0
 11
192.931
 21
21.6435
 31
0.0
  0
LINE
  5
1B4
  8
0
 62
     0
 10
192.931
 20
21.6435
 30
0.0
 11
192.931
 21
35.6429
 31
0.0
  0
LINE
  5
1B5
  8
0
 62
     0
 10
173.881
 20
35.6429
 30
0.0
 11
187.882
 21
35.6429
 31
0.0
  0
LINE
  5
1B6
  8
0
 62
     0
 10
187.882
 20
35.6429
 30
0.0
 11
187.882
 21
21.6435
 31
0.0
  0
LINE
  5
1B7
  8
0
 62
     0
 10
187.882
 20
21.6435
 30
0.0
 11
173.881
 21
21.6435
 31
0.0
  0
LINE
  5
1B8
  8
0
 62
     0
 10
173.881
 20
21.6435
 30
0.0
 11
173.881
 21
35.6429
 31
0.0
  0
LINE
  5
1B9
  8
0
 62
     0
 10
154.831
 20
35.6429
 30
0.0
 11
168.83
 21
35.6429
 31
0.0
  0
LINE
  5
1BA
  8
0
 62
     0
 10
168.83
 20
35.6429
 30
0.0
 11
168.83
 21
21.6435
 31
0.0
  0
LINE
  5
1BB
  8
0
 62
     0
 10
168.83
 20
21.6435
 30
0.0
 11
154.831
 21
21.6435
 31
0.0
  0
LINE
  5
1BC
  8
0
 62
     0
 10
154.831
 20
21.6435
 30
0.0
 11
154.831
 21
35.6429
 31
0.0
  0
LINE
  5
1BD
  8
0
 62
     0
 10
135.781
 20
35.6429
 30
0.0
 11
149.782
 21
35.6429
 31
0.0
  0
LINE
  5
1BE
  8
0
 62
     0
 10
149.782
 20
35.6429
 30
0.0
 11
149.782
 21
21.6435
 31
0.0
  0
LINE
  5
1BF
  8
0
 62
     0
 10
149.782
 20
21.6435
 30
0.0
 11
135.781
 21
21.6435
 31
0.0
  0
LINE
  5
1C0
  8
0
 62
     0
 10
135.781
 20
21.6435
 30
0.0
 11
135.781
 21
35.6429
 31
0.0
  0
LINE
  5
1C1
  8
0
 62
     0
 10
116.731
 20
35.6429
 30
0.0
 11
130.732
 21
35.6429
 31
0.0
  0
LINE
  5
1C2
  8
0
 62
     0
 10
130.732
 20
35.6429
 30
0.0
 11
130.732
 21
21.6435
 31
0.0
  0
LINE
  5
1C3
  8
0
 62
     0
 10
130.732
 20
21.6435
 30
0.0
 11
116.731
 21
21.6435
 31
0.0
  0
LINE
  5
1C4
  8
0
 62
     0
 10
116.731
 20
21.6435
 30
0.0
 11
116.731
 21
35.6429
 31
0.0
  0
LINE
  5
1C5
  8
0
 62
     0
 10
97.681
 20
35.6429
 30
0.0
 11
111.682
 21
35.6429
 31
0.0
  0
LINE
  5
1C6
  8
0
 62
     0
 10
111.682
 20
35.6429
 30
0.0
 11
111.682
 21
21.6435
 31
0.0
  0
LINE
  5
1C7
  8
0
 62
     0
 10
111.682
 20
21.6435
 30
0.0
 11
97.681
 21
21.6435
 31
0.0
  0
LINE
  5
1C8
  8
0
 62
     0
 10
97.681
 20
21.6435
 30
0.0
 11
97.681
 21
35.6429
 31
0.0
  0
LINE
  5
1C9
  8
0
 62
     0
 10
78.631
 20
35.6429
 30
0.0
 11
92.6317
 21
35.6429
 31
0.0
  0
LINE
  5
1CA
  8
0
 62
     0
 10
92.6317
 20
35.6429
 30
0.0
 11
92.6317
 21
21.6435
 31
0.0
  0
LINE
  5
1CB
  8
0
 62
     0
 10
92.6317
 20
21.6435
 30
0.0
 11
78.631
 21
21.6435
 31
0.0
  0
LINE
  5
1CC
  8
0
 62
     0
 10
78.631
 20
21.6435
 30
0.0
 11
78.631
 21
35.6429
 31
0.0
  0
LINE
  5
1CD
  8
0
 62
     0
 10
59.581
 20
35.6429
 30
0.0
 11
73.5803
 21
35.6429
 31
0.0
  0
LINE
  5
1CE
  8
0
 62
     0
 10
73.5803
 20
35.6429
 30
0.0
 11
73.5803
 21
21.6435
 31
0.0
  0
LINE
  5
1CF
  8
0
 62
     0
 10
73.5803
 20
21.6435
 30
0.0
 11
59.581
 21
21.6435
 31
0.0
  0
LINE
  5
1D0
  8
0
 62
     0
 10
59.581
 20
21.6435
 30
0.0
 11
59.581
 21
35.6429
 31
0.0
  0
LINE
  5
1D1
  8
0
 62
     0
 10
40.531
 20
35.6429
 30
0.0
 11
54.5317
 21
35.6429
 31
0.0
  0
LINE
  5
1D2
  8
0
 62
     0
 10
54.5317
 20
35.6429
 30
0.0
 11
54.5317
 21
21.6435
 31
0.0
  0
LINE
  5
1D3
  8
0
 62
     0
 10
54.5317
 20
21.6435
 30
0.0
 11
40.531
 21
21.6435
 31
0.0
  0
LINE
  5
1D4
  8
0
 62
     0
 10
40.531
 20
21.6435
 30
0.0
 11
40.531
 21
35.6429
 31
0.0
  0
LINE
  5
1D5
  8
0
 62
     0
 10
257.223
 20
54.6929
 30
0.0
 11
257.223
 21
49.9939
 31
0.0
  0
LINE
  5
1D6
  8
0
 62
     0
 10
257.223
 20
49.9939
 30
0.0
 11
255.699
 21
49.9939
 31
0.0
  0
LINE
  5
1D7
  8
0
 62
     0
 10
255.699
 20
49.9939
 30
0.0
 11
255.699
 21
53.2225
 31
0.0
  0
LINE
  5
1D8
  8
0
 62
     0
 10
255.699
 20
53.2225
 30
0.0
 11
248.95
 21
53.2225
 31
0.0
  0
LINE
  5
1D9
  8
0
 62
     0
 10
248.95
 20
53.2225
 30
0.0
 11
248.95
 21
49.9939
 31
0.0
  0
LINE
  5
1DA
  8
0
 62
     0
 10
248.95
 20
49.9939
 30
0.0
 11
248.126
 21
49.9939
 31
0.0
  0
LINE
  5
1DB
  8
0
 62
     0
 10
248.126
 20
49.9939
 30
0.0
 11
248.126
 21
47.1921
 31
0.0
  0
LINE
  5
1DC
  8
0
 62
     0
 10
248.126
 20
47.1921
 30
0.0
 11
248.95
 21
47.1921
 31
0.0
  0
LINE
  5
1DD
  8
0
 62
     0
 10
248.95
 20
47.1921
 30
0.0
 11
248.95
 21
40.9236
 31
0.0
  0
LINE
  5
1DE
  8
0
 62
     0
 10
248.95
 20
40.9236
 30
0.0
 11
250.675
 21
40.9236
 31
0.0
  0
LINE
  5
1DF
  8
0
 62
     0
 10
250.675
 20
40.9236
 30
0.0
 11
250.675
 21
39.7221
 31
0.0
  0
LINE
  5
1E0
  8
0
 62
     0
 10
250.675
 20
39.7221
 30
0.0
 11
253.974
 21
39.7221
 31
0.0
  0
LINE
  5
1E1
  8
0
 62
     0
 10
253.974
 20
39.7221
 30
0.0
 11
253.974
 21
40.9236
 31
0.0
  0
LINE
  5
1E2
  8
0
 62
     0
 10
253.974
 20
40.9236
 30
0.0
 11
255.699
 21
40.9236
 31
0.0
  0
LINE
  5
1E3
  8
0
 62
     0
 10
255.699
 20
40.9236
 30
0.0
 11
255.699
 21
45.394
 31
0.0
  0
LINE
  5
1E4
  8
0
 62
     0
 10
255.699
 20
45.394
 30
0.0
 11
257.223
 21
45.394
 31
0.0
  0
LINE
  5
1E5
  8
0
 62
     0
 10
257.223
 20
45.394
 30
0.0
 11
257.223
 21
40.6922
 31
0.0
  0
LINE
  5
1E6
  8
0
 62
     0
 10
257.223
 20
40.6922
 30
0.0
 11
271.224
 21
40.6922
 31
0.0
  0
LINE
  5
1E7
  8
0
 62
     0
 10
271.224
 20
40.6922
 30
0.0
 11
271.224
 21
45.394
 31
0.0
  0
LINE
  5
1E8
  8
0
 62
     0
 10
271.224
 20
45.394
 30
0.0
 11
272.749
 21
45.394
 31
0.0
  0
LINE
  5
1E9
  8
0
 62
     0
 10
272.749
 20
45.394
 30
0.0
 11
272.749
 21
40.9236
 31
0.0
  0
LINE
  5
1EA
  8
0
 62
     0
 10
272.749
 20
40.9236
 30
0.0
 11
274.475
 21
40.9236
 31
0.0
  0
LINE
  5
1EB
  8
0
 62
     0
 10
274.475
 20
40.9236
 30
0.0
 11
274.475
 21
39.7221
 31
0.0
  0
LINE
  5
1EC
  8
0
 62
     0
 10
274.475
 20
39.7221
 30
0.0
 11
277.774
 21
39.7221
 31
0.0
  0
LINE
  5
1ED
  8
0
 62
     0
 10
277.774
 20
39.7221
 30
0.0
 11
277.774
 21
40.9236
 31
0.0
  0
LINE
  5
1EE
  8
0
 62
     0
 10
277.774
 20
40.9236
 30
0.0
 11
279.499
 21
40.9236
 31
0.0
  0
LINE
  5
1EF
  8
0
 62
     0
 10
279.499
 20
40.9236
 30
0.0
 11
279.499
 21
47.1921
 31
0.0
  0
LINE
  5
1F0
  8
0
 62
     0
 10
279.499
 20
47.1921
 30
0.0
 11
280.325
 21
47.1921
 31
0.0
  0
LINE
  5
1F1
  8
0
 62
     0
 10
280.325
 20
47.1921
 30
0.0
 11
280.325
 21
49.9939
 31
0.0
  0
LINE
  5
1F2
  8
0
 62
     0
 10
280.325
 20
49.9939
 30
0.0
 11
279.499
 21
49.9939
 31
0.0
  0
LINE
  5
1F3
  8
0
 62
     0
 10
279.499
 20
49.9939
 30
0.0
 11
279.499
 21
53.2225
 31
0.0
  0
LINE
  5
1F4
  8
0
 62
     0
 10
279.499
 20
53.2225
 30
0.0
 11
272.749
 21
53.2225
 31
0.0
  0
LINE
  5
1F5
  8
0
 62
     0
 10
272.749
 20
53.2225
 30
0.0
 11
272.749
 21
49.9939
 31
0.0
  0
LINE
  5
1F6
  8
0
 62
     0
 10
272.749
 20
49.9939
 30
0.0
 11
271.224
 21
49.9939
 31
0.0
  0
LINE
  5
1F7
  8
0
 62
     0
 10
271.224
 20
49.9939
 30
0.0
 11
271.224
 21
54.6929
 31
0.0
  0
LINE
  5
1F8
  8
0
 62
     0
 10
271.224
 20
54.6929
 30
0.0
 11
257.223
 21
54.6929
 31
0.0
  0
LINE
  5
1F9
  8
0
 62
     0
 10
226.27
 20
54.6929
 30
0.0
 11
240.269
 21
54.6929
 31
0.0
  0
LINE
  5
1FA
  8
0
 62
     0
 10
240.269
 20
54.6929
 30
0.0
 11
240.269
 21
40.6922
 31
0.0
  0
LINE
  5
1FB
  8
0
 62
     0
 10
240.269
 20
40.6922
 30
0.0
 11
226.27
 21
40.6922
 31
0.0
  0
LINE
  5
1FC
  8
0
 62
     0
 10
226.27
 20
40.6922
 30
0.0
 11
226.27
 21
54.6929
 31
0.0
  0
LINE
  5
1FD
  8
0
 62
     0
 10
207.22
 20
54.6929
 30
0.0
 11
221.219
 21
54.6929
 31
0.0
  0
LINE
  5
1FE
  8
0
 62
     0
 10
221.219
 20
54.6929
 30
0.0
 11
221.219
 21
40.6922
 31
0.0
  0
LINE
  5
1FF
  8
0
 62
     0
 10
221.219
 20
40.6922
 30
0.0
 11
207.22
 21
40.6922
 31
0.0
  0
LINE
  5
200
  8
0
 62
     0
 10
207.22
 20
40.6922
 30
0.0
 11
207.22
 21
54.6929
 31
0.0
  0
LINE
  5
201
  8
0
 62
     0
 10
188.168
 20
54.6929
 30
0.0
 11
202.168
 21
54.6929
 31
0.0
  0
LINE
  5
202
  8
0
 62
     0
 10
202.168
 20
54.6929
 30
0.0
 11
202.168
 21
40.6922
 31
0.0
  0
LINE
  5
203
  8
0
 62
     0
 10
202.168
 20
40.6922
 30
0.0
 11
188.168
 21
40.6922
 31
0.0
  0
LINE
  5
204
  8
0
 62
     0
 10
188.168
 20
40.6922
 30
0.0
 11
188.168
 21
54.6929
 31
0.0
  0
LINE
  5
205
  8
0
 62
     0
 10
169.12
 20
54.6929
 30
0.0
 11
183.119
 21
54.6929
 31
0.0
  0
LINE
  5
206
  8
0
 62
     0
 10
183.119
 20
54.6929
 30
0.0
 11
183.119
 21
40.6922
 31
0.0
  0
LINE
  5
207
  8
0
 62
     0
 10
183.119
 20
40.6922
 30
0.0
 11
169.12
 21
40.6922
 31
0.0
  0
LINE
  5
208
  8
0
 62
     0
 10
169.12
 20
40.6922
 30
0.0
 11
169.12
 21
54.6929
 31
0.0
  0
LINE
  5
209
  8
0
 62
     0
 10
150.068
 20
54.6929
 30
0.0
 11
164.068
 21
54.6929
 31
0.0
  0
LINE
  5
20A
  8
0
 62
     0
 10
164.068
 20
54.6929
 30
0.0
 11
164.068
 21
40.6922
 31
0.0
  0
LINE
  5
20B
  8
0
 62
     0
 10
164.068
 20
40.6922
 30
0.0
 11
150.068
 21
40.6922
 31
0.0
  0
LINE
  5
20C
  8
0
 62
     0
 10
150.068
 20
40.6922
 30
0.0
 11
150.068
 21
54.6929
 31
0.0
  0
LINE
  5
20D
  8
0
 62
     0
 10
131.018
 20
54.6929
 30
0.0
 11
145.018
 21
54.6929
 31
0.0
  0
LINE
  5
20E
  8
0
 62
     0
 10
145.018
 20
54.6929
 30
0.0
 11
145.018
 21
40.6922
 31
0.0
  0
LINE
  5
20F
  8
0
 62
     0
 10
145.018
 20
40.6922
 30
0.0
 11
131.018
 21
40.6922
 31
0.0
  0
LINE
  5
210
  8
0
 62
     0
 10
131.018
 20
40.6922
 30
0.0
 11
131.018
 21
54.6929
 31
0.0
  0
LINE
  5
211
  8
0
 62
     0
 10
111.967
 20
54.6929
 30
0.0
 11
125.969
 21
54.6929
 31
0.0
  0
LINE
  5
212
  8
0
 62
     0
 10
125.969
 20
54.6929
 30
0.0
 11
125.969
 21
40.6922
 31
0.0
  0
LINE
  5
213
  8
0
 62
     0
 10
125.969
 20
40.6922
 30
0.0
 11
111.967
 21
40.6922
 31
0.0
  0
LINE
  5
214
  8
0
 62
     0
 10
111.967
 20
40.6922
 30
0.0
 11
111.967
 21
54.6929
 31
0.0
  0
LINE
  5
215
  8
0
 62
     0
 10
92.9185
 20
54.6929
 30
0.0
 11
106.918
 21
54.6929
 31
0.0
  0
LINE
  5
216
  8
0
 62
     0
 10
106.918
 20
54.6929
 30
0.0
 11
106.918
 21
40.6922
 31
0.0
  0
LINE
  5
217
  8
0
 62
     0
 10
106.918
 20
40.6922
 30
0.0
 11
92.9185
 21
40.6922
 31
0.0
  0
LINE
  5
218
  8
0
 62
     0
 10
92.9185
 20
40.6922
 30
0.0
 11
92.9185
 21
54.6929
 31
0.0
  0
LINE
  5
219
  8
0
 62
     0
 10
73.8685
 20
54.6929
 30
0.0
 11
87.8678
 21
54.6929
 31
0.0
  0
LINE
  5
21A
  8
0
 62
     0
 10
87.8678
 20
54.6929
 30
0.0
 11
87.8678
 21
40.6922
 31
0.0
  0
LINE
  5
21B
  8
0
 62
     0
 10
87.8678
 20
40.6922
 30
0.0
 11
73.8685
 21
40.6922
 31
0.0
  0
LINE
  5
21C
  8
0
 62
     0
 10
73.8685
 20
40.6922
 30
0.0
 11
73.8685
 21
54.6929
 31
0.0
  0
LINE
  5
21D
  8
0
 62
     0
 10
54.8171
 20
54.6929
 30
0.0
 11
68.8178
 21
54.6929
 31
0.0
  0
LINE
  5
21E
  8
0
 62
     0
 10
68.8178
 20
54.6929
 30
0.0
 11
68.8178
 21
40.6922
 31
0.0
  0
LINE
  5
21F
  8
0
 62
     0
 10
68.8178
 20
40.6922
 30
0.0
 11
54.8171
 21
40.6922
 31
0.0
  0
LINE
  5
220
  8
0
 62
     0
 10
54.8171
 20
40.6922
 30
0.0
 11
54.8171
 21
54.6929
 31
0.0
  0
LINE
  5
221
  8
0
 62
     0
 10
35.7699
 20
54.6929
 30
0.0
 11
49.7692
 21
54.6929
 31
0.0
  0
LINE
  5
222
  8
0
 62
     0
 10
49.7692
 20
54.6929
 30
0.0
 11
49.7692
 21
40.6922
 31
0.0
  0
LINE
  5
223
  8
0
 62
     0
 10
49.7692
 20
40.6922
 30
0.0
 11
35.7699
 21
40.6922
 31
0.0
  0
LINE
  5
224
  8
0
 62
     0
 10
35.7699
 20
40.6922
 30
0.0
 11
35.7699
 21
54.6929
 31
0.0
  0
LINE
  5
225
  8
0
 62
     0
 10
9.57598
 20
54.6929
 30
0.0
 11
23.5755
 21
54.6929
 31
0.0
  0
LINE
  5
226
  8
0
 62
     0
 10
23.5755
 20
54.6929
 30
0.0
 11
23.5755
 21
40.6922
 31
0.0
  0
LINE
  5
227
  8
0
 62
     0
 10
23.5755
 20
40.6922
 30
0.0
 11
9.57598
 21
40.6922
 31
0.0
  0
LINE
  5
228
  8
0
 62
     0
 10
9.57598
 20
40.6922
 30
0.0
 11
9.57598
 21
54.6929
 31
0.0
  0
LINE
  5
229
  8
0
 62
     0
 10
264.368
 20
73.7429
 30
0.0
 11
278.368
 21
73.7429
 31
0.0
  0
LINE
  5
22A
  8
0
 62
     0
 10
278.368
 20
73.7429
 30
0.0
 11
278.368
 21
59.7436
 31
0.0
  0
LINE
  5
22B
  8
0
 62
     0
 10
278.368
 20
59.7436
 30
0.0
 11
264.368
 21
59.7436
 31
0.0
  0
LINE
  5
22C
  8
0
 62
     0
 10
264.368
 20
59.7436
 30
0.0
 11
264.368
 21
73.7429
 31
0.0
  0
LINE
  5
22D
  8
0
 62
     0
 10
240.556
 20
73.7429
 30
0.0
 11
254.555
 21
73.7429
 31
0.0
  0
LINE
  5
22E
  8
0
 62
     0
 10
254.555
 20
73.7429
 30
0.0
 11
254.555
 21
59.7436
 31
0.0
  0
LINE
  5
22F
  8
0
 62
     0
 10
254.555
 20
59.7436
 30
0.0
 11
240.556
 21
59.7436
 31
0.0
  0
LINE
  5
230
  8
0
 62
     0
 10
240.556
 20
59.7436
 30
0.0
 11
240.556
 21
73.7429
 31
0.0
  0
LINE
  5
231
  8
0
 62
     0
 10
221.506
 20
73.7429
 30
0.0
 11
235.507
 21
73.7429
 31
0.0
  0
LINE
  5
232
  8
0
 62
     0
 10
235.507
 20
73.7429
 30
0.0
 11
235.507
 21
59.7436
 31
0.0
  0
LINE
  5
233
  8
0
 62
     0
 10
235.507
 20
59.7436
 30
0.0
 11
221.506
 21
59.7436
 31
0.0
  0
LINE
  5
234
  8
0
 62
     0
 10
221.506
 20
59.7436
 30
0.0
 11
221.506
 21
73.7429
 31
0.0
  0
LINE
  5
235
  8
0
 62
     0
 10
202.456
 20
73.7429
 30
0.0
 11
216.455
 21
73.7429
 31
0.0
  0
LINE
  5
236
  8
0
 62
     0
 10
216.455
 20
73.7429
 30
0.0
 11
216.455
 21
59.7436
 31
0.0
  0
LINE
  5
237
  8
0
 62
     0
 10
216.455
 20
59.7436
 30
0.0
 11
202.456
 21
59.7436
 31
0.0
  0
LINE
  5
238
  8
0
 62
     0
 10
202.456
 20
59.7436
 30
0.0
 11
202.456
 21
73.7429
 31
0.0
  0
LINE
  5
239
  8
0
 62
     0
 10
183.406
 20
73.7429
 30
0.0
 11
197.407
 21
73.7429
 31
0.0
  0
LINE
  5
23A
  8
0
 62
     0
 10
197.407
 20
73.7429
 30
0.0
 11
197.407
 21
59.7436
 31
0.0
  0
LINE
  5
23B
  8
0
 62
     0
 10
197.407
 20
59.7436
 30
0.0
 11
183.406
 21
59.7436
 31
0.0
  0
LINE
  5
23C
  8
0
 62
     0
 10
183.406
 20
59.7436
 30
0.0
 11
183.406
 21
73.7429
 31
0.0
  0
LINE
  5
23D
  8
0
 62
     0
 10
164.356
 20
73.7429
 30
0.0
 11
178.357
 21
73.7429
 31
0.0
  0
LINE
  5
23E
  8
0
 62
     0
 10
178.357
 20
73.7429
 30
0.0
 11
178.357
 21
59.7436
 31
0.0
  0
LINE
  5
23F
  8
0
 62
     0
 10
178.357
 20
59.7436
 30
0.0
 11
164.356
 21
59.7436
 31
0.0
  0
LINE
  5
240
  8
0
 62
     0
 10
164.356
 20
59.7436
 30
0.0
 11
164.356
 21
73.7429
 31
0.0
  0
LINE
  5
241
  8
0
 62
     0
 10
145.306
 20
73.7429
 30
0.0
 11
159.305
 21
73.7429
 31
0.0
  0
LINE
  5
242
  8
0
 62
     0
 10
159.305
 20
73.7429
 30
0.0
 11
159.305
 21
59.7436
 31
0.0
  0
LINE
  5
243
  8
0
 62
     0
 10
159.305
 20
59.7436
 30
0.0
 11
145.306
 21
59.7436
 31
0.0
  0
LINE
  5
244
  8
0
 62
     0
 10
145.306
 20
59.7436
 30
0.0
 11
145.306
 21
73.7429
 31
0.0
  0
LINE
  5
245
  8
0
 62
     0
 10
126.256
 20
73.7429
 30
0.0
 11
140.257
 21
73.7429
 31
0.0
  0
LINE
  5
246
  8
0
 62
     0
 10
140.257
 20
73.7429
 30
0.0
 11
140.257
 21
59.7436
 31
0.0
  0
LINE
  5
247
  8
0
 62
     0
 10
140.257
 20
59.7436
 30
0.0
 11
126.256
 21
59.7436
 31
0.0
  0
LINE
  5
248
  8
0
 62
     0
 10
126.256
 20
59.7436
 30
0.0
 11
126.256
 21
73.7429
 31
0.0
  0
LINE
  5
249
  8
0
 62
     0
 10
107.206
 20
73.7429
 30
0.0
 11
121.205
 21
73.7429
 31
0.0
  0
LINE
  5
24A
  8
0
 62
     0
 10
121.205
 20
73.7429
 30
0.0
 11
121.205
 21
59.7436
 31
0.0
  0
LINE
  5
24B
  8
0
 62
     0
 10
121.205
 20
59.7436
 30
0.0
 11
107.206
 21
59.7436
 31
0.0
  0
LINE
  5
24C
  8
0
 62
     0
 10
107.206
 20
59.7436
 30
0.0
 11
107.206
 21
73.7429
 31
0.0
  0
LINE
  5
24D
  8
0
 62
     0
 10
88.156
 20
73.7429
 30
0.0
 11
102.157
 21
73.7429
 31
0.0
  0
LINE
  5
24E
  8
0
 62
     0
 10
102.157
 20
73.7429
 30
0.0
 11
102.157
 21
59.7436
 31
0.0
  0
LINE
  5
24F
  8
0
 62
     0
 10
102.157
 20
59.7436
 30
0.0
 11
88.156
 21
59.7436
 31
0.0
  0
LINE
  5
250
  8
0
 62
     0
 10
88.156
 20
59.7436
 30
0.0
 11
88.156
 21
73.7429
 31
0.0
  0
LINE
  5
251
  8
0
 62
     0
 10
69.106
 20
73.7429
 30
0.0
 11
83.1067
 21
73.7429
 31
0.0
  0
LINE
  5
252
  8
0
 62
     0
 10
83.1067
 20
73.7429
 30
0.0
 11
83.1067
 21
59.7436
 31
0.0
  0
LINE
  5
253
  8
0
 62
     0
 10
83.1067
 20
59.7436
 30
0.0
 11
69.106
 21
59.7436
 31
0.0
  0
LINE
  5
254
  8
0
 62
     0
 10
69.106
 20
59.7436
 30
0.0
 11
69.106
 21
73.7429
 31
0.0
  0
LINE
  5
255
  8
0
 62
     0
 10
50.056
 20
73.7429
 30
0.0
 11
64.0567
 21
73.7429
 31
0.0
  0
LINE
  5
256
  8
0
 62
     0
 10
64.0567
 20
73.7429
 30
0.0
 11
64.0567
 21
59.7436
 31
0.0
  0
LINE
  5
257
  8
0
 62
     0
 10
64.0567
 20
59.7436
 30
0.0
 11
50.056
 21
59.7436
 31
0.0
  0
LINE
  5
258
  8
0
 62
     0
 10
50.056
 20
59.7436
 30
0.0
 11
50.056
 21
73.7429
 31
0.0
  0
LINE
  5
259
  8
0
 62
     0
 10
31.0059
 20
73.7429
 30
0.0
 11
45.0053
 21
73.7429
 31
0.0
  0
LINE
  5
25A
  8
0
 62
     0
 10
45.0053
 20
73.7429
 30
0.0
 11
45.0053
 21
59.7436
 31
0.0
  0
LINE
  5
25B
  8
0
 62
     0
 10
45.0053
 20
59.7436
 30
0.0
 11
31.0059
 21
59.7436
 31
0.0
  0
LINE
  5
25C
  8
0
 62
     0
 10
31.0059
 20
59.7436
 30
0.0
 11
31.0059
 21
73.7429
 31
0.0
  0
LINE
  5
25D
  8
0
 62
     0
 10
7.19473
 20
73.7429
 30
0.0
 11
21.1942
 21
73.7429
 31
0.0
  0
LINE
  5
25E
  8
0
 62
     0
 10
21.1942
 20
73.7429
 30
0.0
 11
21.1942
 21
59.7436
 31
0.0
  0
LINE
  5
25F
  8
0
 62
     0
 10
21.1942
 20
59.7436
 30
0.0
 11
7.19473
 21
59.7436
 31
0.0
  0
LINE
  5
260
  8
0
 62
     0
 10
7.19473
 20
59.7436
 30
0.0
 11
7.19473
 21
73.7429
 31
0.0
  0
LINE
  5
261
  8
0
 62
     0
 10
259.606
 20
92.7929
 30
0.0
 11
259.606
 21
88.0939
 31
0.0
  0
LINE
  5
262
  8
0
 62
     0
 10
259.606
 20
88.0939
 30
0.0
 11
258.08
 21
88.0939
 31
0.0
  0
LINE
  5
263
  8
0
 62
     0
 10
258.08
 20
88.0939
 30
0.0
 11
258.08
 21
91.3239
 31
0.0
  0
LINE
  5
264
  8
0
 62
     0
 10
258.08
 20
91.3239
 30
0.0
 11
251.331
 21
91.3239
 31
0.0
  0
LINE
  5
265
  8
0
 62
     0
 10
251.331
 20
91.3239
 30
0.0
 11
251.331
 21
88.0939
 31
0.0
  0
LINE
  5
266
  8
0
 62
     0
 10
251.331
 20
88.0939
 30
0.0
 11
250.507
 21
88.0939
 31
0.0
  0
LINE
  5
267
  8
0
 62
     0
 10
250.507
 20
88.0939
 30
0.0
 11
250.507
 21
85.2936
 31
0.0
  0
LINE
  5
268
  8
0
 62
     0
 10
250.507
 20
85.2936
 30
0.0
 11
251.331
 21
85.2936
 31
0.0
  0
LINE
  5
269
  8
0
 62
     0
 10
251.331
 20
85.2936
 30
0.0
 11
251.331
 21
79.0222
 31
0.0
  0
LINE
  5
26A
  8
0
 62
     0
 10
251.331
 20
79.0222
 30
0.0
 11
253.056
 21
79.0222
 31
0.0
  0
LINE
  5
26B
  8
0
 62
     0
 10
253.056
 20
79.0222
 30
0.0
 11
253.056
 21
77.8235
 31
0.0
  0
LINE
  5
26C
  8
0
 62
     0
 10
253.056
 20
77.8235
 30
0.0
 11
256.355
 21
77.8235
 31
0.0
  0
LINE
  5
26D
  8
0
 62
     0
 10
256.355
 20
77.8235
 30
0.0
 11
256.355
 21
79.0222
 31
0.0
  0
LINE
  5
26E
  8
0
 62
     0
 10
256.355
 20
79.0222
 30
0.0
 11
258.08
 21
79.0222
 31
0.0
  0
LINE
  5
26F
  8
0
 62
     0
 10
258.08
 20
79.0222
 30
0.0
 11
258.08
 21
83.494
 31
0.0
  0
LINE
  5
270
  8
0
 62
     0
 10
258.08
 20
83.494
 30
0.0
 11
259.606
 21
83.494
 31
0.0
  0
LINE
  5
271
  8
0
 62
     0
 10
259.606
 20
83.494
 30
0.0
 11
259.606
 21
78.7936
 31
0.0
  0
LINE
  5
272
  8
0
 62
     0
 10
259.606
 20
78.7936
 30
0.0
 11
273.605
 21
78.7936
 31
0.0
  0
LINE
  5
273
  8
0
 62
     0
 10
273.605
 20
78.7936
 30
0.0
 11
273.605
 21
83.494
 31
0.0
  0
LINE
  5
274
  8
0
 62
     0
 10
273.605
 20
83.494
 30
0.0
 11
275.131
 21
83.494
 31
0.0
  0
LINE
  5
275
  8
0
 62
     0
 10
275.131
 20
83.494
 30
0.0
 11
275.131
 21
79.0222
 31
0.0
  0
LINE
  5
276
  8
0
 62
     0
 10
275.131
 20
79.0222
 30
0.0
 11
276.856
 21
79.0222
 31
0.0
  0
LINE
  5
277
  8
0
 62
     0
 10
276.856
 20
79.0222
 30
0.0
 11
276.856
 21
77.8235
 31
0.0
  0
LINE
  5
278
  8
0
 62
     0
 10
276.856
 20
77.8235
 30
0.0
 11
280.155
 21
77.8235
 31
0.0
  0
LINE
  5
279
  8
0
 62
     0
 10
280.155
 20
77.8235
 30
0.0
 11
280.155
 21
79.0222
 31
0.0
  0
LINE
  5
27A
  8
0
 62
     0
 10
280.155
 20
79.0222
 30
0.0
 11
281.88
 21
79.0222
 31
0.0
  0
LINE
  5
27B
  8
0
 62
     0
 10
281.88
 20
79.0222
 30
0.0
 11
281.88
 21
85.2936
 31
0.0
  0
LINE
  5
27C
  8
0
 62
     0
 10
281.88
 20
85.2936
 30
0.0
 11
282.706
 21
85.2936
 31
0.0
  0
LINE
  5
27D
  8
0
 62
     0
 10
282.706
 20
85.2936
 30
0.0
 11
282.706
 21
88.0939
 31
0.0
  0
LINE
  5
27E
  8
0
 62
     0
 10
282.706
 20
88.0939
 30
0.0
 11
281.88
 21
88.0939
 31
0.0
  0
LINE
  5
27F
  8
0
 62
     0
 10
281.88
 20
88.0939
 30
0.0
 11
281.88
 21
91.3239
 31
0.0
  0
LINE
  5
280
  8
0
 62
     0
 10
281.88
 20
91.3239
 30
0.0
 11
275.131
 21
91.3239
 31
0.0
  0
LINE
  5
281
  8
0
 62
     0
 10
275.131
 20
91.3239
 30
0.0
 11
275.131
 21
88.0939
 31
0.0
  0
LINE
  5
282
  8
0
 62
     0
 10
275.131
 20
88.0939
 30
0.0
 11
273.605
 21
88.0939
 31
0.0
  0
LINE
  5
283
  8
0
 62
     0
 10
273.605
 20
88.0939
 30
0.0
 11
273.605
 21
92.7929
 31
0.0
  0
LINE
  5
284
  8
0
 62
     0
 10
273.605
 20
92.7929
 30
0.0
 11
259.606
 21
92.7929
 31
0.0
  0
LINE
  5
285
  8
0
 62
     0
 10
231.031
 20
92.7929
 30
0.0
 11
245.032
 21
92.7929
 31
0.0
  0
LINE
  5
286
  8
0
 62
     0
 10
245.032
 20
92.7929
 30
0.0
 11
245.032
 21
78.7936
 31
0.0
  0
LINE
  5
287
  8
0
 62
     0
 10
245.032
 20
78.7936
 30
0.0
 11
231.031
 21
78.7936
 31
0.0
  0
LINE
  5
288
  8
0
 62
     0
 10
231.031
 20
78.7936
 30
0.0
 11
231.031
 21
92.7929
 31
0.0
  0
LINE
  5
289
  8
0
 62
     0
 10
211.981
 20
92.7929
 30
0.0
 11
225.982
 21
92.7929
 31
0.0
  0
LINE
  5
28A
  8
0
 62
     0
 10
225.982
 20
92.7929
 30
0.0
 11
225.982
 21
78.7936
 31
0.0
  0
LINE
  5
28B
  8
0
 62
     0
 10
225.982
 20
78.7936
 30
0.0
 11
211.981
 21
78.7936
 31
0.0
  0
LINE
  5
28C
  8
0
 62
     0
 10
211.981
 20
78.7936
 30
0.0
 11
211.981
 21
92.7929
 31
0.0
  0
LINE
  5
28D
  8
0
 62
     0
 10
192.931
 20
92.7929
 30
0.0
 11
206.93
 21
92.7929
 31
0.0
  0
LINE
  5
28E
  8
0
 62
     0
 10
206.93
 20
92.7929
 30
0.0
 11
206.93
 21
78.7936
 31
0.0
  0
LINE
  5
28F
  8
0
 62
     0
 10
206.93
 20
78.7936
 30
0.0
 11
192.931
 21
78.7936
 31
0.0
  0
LINE
  5
290
  8
0
 62
     0
 10
192.931
 20
78.7936
 30
0.0
 11
192.931
 21
92.7929
 31
0.0
  0
LINE
  5
291
  8
0
 62
     0
 10
173.881
 20
92.7929
 30
0.0
 11
187.882
 21
92.7929
 31
0.0
  0
LINE
  5
292
  8
0
 62
     0
 10
187.882
 20
92.7929
 30
0.0
 11
187.882
 21
78.7936
 31
0.0
  0
LINE
  5
293
  8
0
 62
     0
 10
187.882
 20
78.7936
 30
0.0
 11
173.881
 21
78.7936
 31
0.0
  0
LINE
  5
294
  8
0
 62
     0
 10
173.881
 20
78.7936
 30
0.0
 11
173.881
 21
92.7929
 31
0.0
  0
LINE
  5
295
  8
0
 62
     0
 10
154.831
 20
92.7929
 30
0.0
 11
168.83
 21
92.7929
 31
0.0
  0
LINE
  5
296
  8
0
 62
     0
 10
168.83
 20
92.7929
 30
0.0
 11
168.83
 21
78.7936
 31
0.0
  0
LINE
  5
297
  8
0
 62
     0
 10
168.83
 20
78.7936
 30
0.0
 11
154.831
 21
78.7936
 31
0.0
  0
LINE
  5
298
  8
0
 62
     0
 10
154.831
 20
78.7936
 30
0.0
 11
154.831
 21
92.7929
 31
0.0
  0
LINE
  5
299
  8
0
 62
     0
 10
135.781
 20
92.7929
 30
0.0
 11
149.782
 21
92.7929
 31
0.0
  0
LINE
  5
29A
  8
0
 62
     0
 10
149.782
 20
92.7929
 30
0.0
 11
149.782
 21
78.7936
 31
0.0
  0
LINE
  5
29B
  8
0
 62
     0
 10
149.782
 20
78.7936
 30
0.0
 11
135.781
 21
78.7936
 31
0.0
  0
LINE
  5
29C
  8
0
 62
     0
 10
135.781
 20
78.7936
 30
0.0
 11
135.781
 21
92.7929
 31
0.0
  0
LINE
  5
29D
  8
0
 62
     0
 10
116.731
 20
92.7929
 30
0.0
 11
130.732
 21
92.7929
 31
0.0
  0
LINE
  5
29E
  8
0
 62
     0
 10
130.732
 20
92.7929
 30
0.0
 11
130.732
 21
78.7936
 31
0.0
  0
LINE
  5
29F
  8
0
 62
     0
 10
130.732
 20
78.7936
 30
0.0
 11
116.731
 21
78.7936
 31
0.0
  0
LINE
  5
2A0
  8
0
 62
     0
 10
116.731
 20
78.7936
 30
0.0
 11
116.731
 21
92.7929
 31
0.0
  0
LINE
  5
2A1
  8
0
 62
     0
 10
97.681
 20
92.7929
 30
0.0
 11
111.682
 21
92.7929
 31
0.0
  0
LINE
  5
2A2
  8
0
 62
     0
 10
111.682
 20
92.7929
 30
0.0
 11
111.682
 21
78.7936
 31
0.0
  0
LINE
  5
2A3
  8
0
 62
     0
 10
111.682
 20
78.7936
 30
0.0
 11
97.681
 21
78.7936
 31
0.0
  0
LINE
  5
2A4
  8
0
 62
     0
 10
97.681
 20
78.7936
 30
0.0
 11
97.681
 21
92.7929
 31
0.0
  0
LINE
  5
2A5
  8
0
 62
     0
 10
78.631
 20
92.7929
 30
0.0
 11
92.6317
 21
92.7929
 31
0.0
  0
LINE
  5
2A6
  8
0
 62
     0
 10
92.6317
 20
92.7929
 30
0.0
 11
92.6317
 21
78.7936
 31
0.0
  0
LINE
  5
2A7
  8
0
 62
     0
 10
92.6317
 20
78.7936
 30
0.0
 11
78.631
 21
78.7936
 31
0.0
  0
LINE
  5
2A8
  8
0
 62
     0
 10
78.631
 20
78.7936
 30
0.0
 11
78.631
 21
92.7929
 31
0.0
  0
LINE
  5
2A9
  8
0
 62
     0
 10
59.581
 20
92.7929
 30
0.0
 11
73.5803
 21
92.7929
 31
0.0
  0
LINE
  5
2AA
  8
0
 62
     0
 10
73.5803
 20
92.7929
 30
0.0
 11
73.5803
 21
78.7936
 31
0.0
  0
LINE
  5
2AB
  8
0
 62
     0
 10
73.5803
 20
78.7936
 30
0.0
 11
59.581
 21
78.7936
 31
0.0
  0
LINE
  5
2AC
  8
0
 62
     0
 10
59.581
 20
78.7936
 30
0.0
 11
59.581
 21
92.7929
 31
0.0
  0
LINE
  5
2AD
  8
0
 62
     0
 10
40.531
 20
92.7929
 30
0.0
 11
54.5317
 21
92.7929
 31
0.0
  0
LINE
  5
2AE
  8
0
 62
     0
 10
54.5317
 20
92.7929
 30
0.0
 11
54.5317
 21
78.7936
 31
0.0
  0
LINE
  5
2AF
  8
0
 62
     0
 10
54.5317
 20
78.7936
 30
0.0
 11
40.531
 21
78.7936
 31
0.0
  0
LINE
  5
2B0
  8
0
 62
     0
 10
40.531
 20
78.7936
 30
0.0
 11
40.531
 21
92.7929
 31
0.0
  0
LINE
  5
2B1
  8
0
 62
     0
 10
21.4809
 20
92.7929
 30
0.0
 11
35.4817
 21
92.7929
 31
0.0
  0
LINE
  5
2B2
  8
0
 62
     0
 10
35.4817
 20
92.7929
 30
0.0
 11
35.4817
 21
78.7936
 31
0.0
  0
LINE
  5
2B3
  8
0
 62
     0
 10
35.4817
 20
78.7936
 30
0.0
 11
21.4809
 21
78.7936
 31
0.0
  0
LINE
  5
2B4
  8
0
 62
     0
 10
21.4809
 20
78.7936
 30
0.0
 11
21.4809
 21
92.7929
 31
0.0
  0
LINE
  5
2B5
  8
0
 62
     0
 10
2.43086
 20
92.7929
 30
0.0
 11
16.4317
 21
92.7929
 31
0.0
  0
LINE
  5
2B6
  8
0
 62
     0
 10
16.4317
 20
92.7929
 30
0.0
 11
16.4317
 21
78.7936
 31
0.0
  0
LINE
  5
2B7
  8
0
 62
     0
 10
16.4317
 20
78.7936
 30
0.0
 11
2.43086
 21
78.7936
 31
0.0
  0
LINE
  5
2B8
  8
0
 62
     0
 10
2.43086
 20
78.7936
 30
0.0
 11
2.43086
 21
92.7929
 31
0.0
  0
LINE
  5
2B9
  8
0
  6
BYBLOCK
 10
0.4308846
 20
40.9924
 30
0.0
 11
0.4308846
 21
92.79289999988394
 31
0.0
  0
LINE
  5
2BA
  8
0
  6
BYBLOCK
 10
2.430884600034918
 20
94.79289999999999
 30
0.0
 11
283.1300000000779
 21
94.79289999999999
 31
0.0
  0
LINE
  5
2BB
  8
0
  6
BYBLOCK
 10
285.13
 20
35.9929
 30
0.0
 11
285.13
 21
2.593454999965637
 31
0.0
  0
LINE
  5
2BC
  8
0
  6
BYBLOCK
 10
283.1299999997718
 20
0.5934550000000001
 30
0.0
 11
2.430884600151318
 21
0.5934550000000001
 31
0.0
  0
ARC
  5
2BD
  8
0
  6
BYBLOCK
 10
283.1299999996164
 20
2.593455000382455
 30
0.0
 40
2.000000000382455
 50
270.0000000044554
 51
359.999999988059
  0
ARC
  5
2BE
  8
0
  6
BYBLOCK
 10
2.430884600058842
 20
92.79289999994114
 30
0.0
 40
2.000000000058847
 50
90.00000000068532
 51
180.0000000016386
  0
CIRCLE
  5
2BF
  8
0
  6
BYBLOCK
 10
25.4827
 20
67.0913
 30
0.0
 40
2.501199999999997
  0
CIRCLE
  5
2C0
  8
0
  6
BYBLOCK
 10
128.4935
 20
47.69255
 30
0.0
 40
2.524500000000018
  0
LINE
  5
2C1
  8
0
 62
     0
 10
192.931
 20
16.593
 30
0.0
 11
192.931
 21
11.06766509813841
 31
0.0
  0
ARC
  5
2C2
  8
0
  6
BYBLOCK
 10
190.7809999999994
 20
9.792345000001745
 30
0.0
 40
2.499754999999621
 50
30.67523718378463
 51
329.3247678347693
  0
LINE
  5
2C3
  8
0
 62
     0
 10
192.931
 20
8.517025156514675
 30
0.0
 11
192.931
 21
2.59347
 31
0.0
  0
LINE
  5
2C4
  8
0
  6
BYBLOCK
 10
285.13
 20
40.99240000004647
 30
0.0
 11
285.13
 21
92.79290000010167
 31
0.0
  0
LINE
  5
2C5
  8
0
 62
     0
 10
285.1300000000001
 20
40.9924
 30
0.0
 11
281.969
 21
40.9924
 31
0.0
  0
ARC
  5
2C6
  8
0
  6
BYBLOCK
 10
283.1300000001013
 20
92.79290000010168
 30
0.0
 40
1.999999999898648
 50
0.0000000000004071
 51
90.00000000067092
  0
LINE
  5
2C7
  8
0
 62
     0
 10
0.4308846000931226
 20
35.9929
 30
0.0
 11
3.59392
 21
35.9929
 31
0.0
  0
LINE
  5
2C8
  8
0
  6
BYBLOCK
 10
0.4308846
 20
35.99289999999998
 30
0.0
 11
0.4308846
 21
2.593455000023823
 31
0.0
  0
ARC
  5
2C9
  8
0
  6
BYBLOCK
 10
2.430884600258338
 20
2.593455000258337
 30
0.0
 40
2.000000000258337
 50
180.0
 51
269.9999999902161
  0
CIRCLE
  5
2CA
  8
0
  6
BYBLOCK
 10
260.332
 20
67.092
 30
0.0
 40
2.500500000000002
  0
VIEWPORT
  5
2CD
 67
     1
  8
0
 10
0.0
 20
0.0
 30
0.0
 40
300.0
 41
220.0
 68
     1
 69
     1
1001
ACAD
1000
MVIEW
1002
{
1070
    16
1010
0.0
1020
0.0
1030
0.0
1010
0.0
1020
0.0
1030
1.0
1040
0.0
1040
1.0
1040
0.0
1040
0.0
1040
50.0
1040
0.0
1040
0.0
1070
     0
1070
   100
1070
     0
1070
     3
1070
     0
1070
     0
1070
     0
1070
     0
1040
0.0
1040
0.0
1040
0.0
1040
0.5
1040
0.5
1040
0.0
1040
0.0
1070
     0
1002
{
1002
}
1002
}
  0
ENDSEC
  0
EOF
